<?xml version="1.0" encoding="utf-8"?>
<!-- Generator: Adobe Illustrator 16.0.0, SVG Export Plug-In . SVG Version: 6.00 Build 0)  -->
<!DOCTYPE svg PUBLIC "-//W3C//DTD SVG 1.1//EN" "http://www.w3.org/Graphics/SVG/1.1/DTD/svg11.dtd">
<svg version="1.1" id="Layer_1" xmlns="http://www.w3.org/2000/svg" xmlns:xlink="http://www.w3.org/1999/xlink" x="0px" y="0px"
	 width="192.656px" height="52.189px" viewBox="0 0 192.656 52.189" enable-background="new 0 0 192.656 52.189"
	 xml:space="preserve">
<g>
	<path fill="#FFFFFF" d="M7.813,26.557c-0.244,0.261-0.509,0.525-0.793,0.793c-0.285,0.27-0.562,0.514-0.83,0.732
		c-0.269,0.221-0.517,0.399-0.745,0.537c-0.228,0.139-0.399,0.208-0.513,0.208c-1.53,0-2.702-0.134-3.516-0.403
		c-0.814-0.268-1.221-0.54-1.221-0.817c0-0.179,0.171-0.325,0.513-0.439c0.342-0.113,0.871-0.171,1.587-0.171
		c0.179,0,0.447-0.135,0.806-0.402c0.358-0.27,0.785-0.606,1.282-1.014c0.496-0.406,1.045-0.846,1.648-1.318
		c0.602-0.472,1.221-0.911,1.855-1.318c0.635-0.406,1.277-0.744,1.929-1.014c0.651-0.268,1.286-0.402,1.904-0.402
		c0.879,0,1.465,0.061,1.758,0.184c0.293,0.121,0.439,0.297,0.439,0.524c0,0.244-0.033,0.546-0.098,0.903
		c-0.065,0.358-0.098,0.781-0.098,1.27c-0.179,1.172-0.342,2.23-0.488,3.174c-0.146,0.944-0.313,2.014-0.5,3.211
		c-0.188,1.195-0.371,2.408-0.549,3.637c-0.179,1.229-0.35,2.426-0.513,3.59c-0.163,1.163-0.301,2.177-0.415,3.039
		c-0.049,0.195-0.11,0.488-0.183,0.879s-0.175,0.818-0.305,1.281c-0.13,0.465-0.289,0.937-0.476,1.416
		c-0.188,0.48-0.411,0.92-0.671,1.318c-0.261,0.399-0.566,0.725-0.916,0.977c-0.35,0.253-0.745,0.379-1.184,0.379
		c-0.537,0-1.042-0.032-1.514-0.098c-0.472-0.064-0.879-0.167-1.221-0.305c-0.342-0.139-0.61-0.318-0.806-0.537
		c-0.195-0.221-0.293-0.484-0.293-0.794c0-0.13,0.008-0.26,0.024-0.391c0.016-0.13,0.081-0.293,0.195-0.488
		c0.26-0.943,0.517-1.925,0.769-2.942c0.252-1.017,0.496-2.038,0.732-3.063c0.236-1.025,0.459-2.038,0.671-3.04
		c0.211-1,0.407-1.948,0.586-2.844C7.088,30.708,7.471,28.625,7.813,26.557z"/>
	<path fill="#FFFFFF" d="M34.521,51.997c-2.425,0-4.61-0.497-6.555-1.489c-1.945-0.993-3.601-2.38-4.968-4.163
		c-1.367-1.781-2.417-3.906-3.149-6.371c-0.732-2.467-1.099-5.172-1.099-8.118c0-1.563,0.114-3.165,0.342-4.81
		c0.228-1.644,0.574-3.283,1.038-4.92c0.464-1.635,1.042-3.238,1.733-4.809c0.691-1.571,1.497-3.056,2.417-4.456
		c0.919-1.399,1.949-2.689,3.088-3.87c1.139-1.18,2.396-2.197,3.772-3.051c1.375-0.855,2.856-1.522,4.443-2.002
		c1.587-0.48,3.292-0.721,5.115-0.721c2.441,0,4.626,0.439,6.555,1.318s3.556,2.108,4.883,3.687
		c1.326,1.579,2.344,3.463,3.052,5.651c0.708,2.189,1.062,4.603,1.062,7.239c0,2.182-0.216,4.456-0.647,6.823
		c-0.432,2.369-1.062,4.696-1.892,6.982c-0.83,2.287-1.864,4.465-3.101,6.531c-1.237,2.067-2.661,3.882-4.272,5.444
		s-3.406,2.804-5.383,3.724C38.977,51.537,36.833,51.997,34.521,51.997z M35.107,46.04c1.302,0,2.515-0.252,3.638-0.757
		c1.123-0.504,2.152-1.196,3.088-2.075c0.936-0.879,1.79-1.908,2.563-3.088c0.773-1.181,1.46-2.445,2.063-3.797
		c0.602-1.351,1.127-2.75,1.575-4.199c0.447-1.448,0.818-2.881,1.111-4.297s0.508-2.779,0.647-4.09
		C49.931,22.427,50,21.235,50,20.161c0-1.563-0.171-3.031-0.513-4.406c-0.342-1.376-0.859-2.572-1.55-3.59
		c-0.692-1.017-1.563-1.818-2.612-2.404S43.05,8.881,41.65,8.881c-1.498,0-2.946,0.362-4.346,1.086
		c-1.4,0.725-2.718,1.701-3.955,2.93c-1.237,1.229-2.368,2.653-3.394,4.273c-1.025,1.619-1.904,3.324-2.637,5.114
		c-0.732,1.791-1.302,3.613-1.709,5.469c-0.407,1.855-0.61,3.63-0.61,5.322c0,1.84,0.232,3.552,0.696,5.14
		c0.464,1.586,1.131,2.958,2.002,4.113c0.871,1.156,1.929,2.063,3.174,2.723C32.117,45.709,33.528,46.04,35.107,46.04z"/>
	<path fill="#FFFFFF" d="M64.063,26.557c-0.244,0.261-0.509,0.525-0.793,0.793c-0.285,0.27-0.562,0.514-0.83,0.732
		c-0.269,0.221-0.517,0.399-0.745,0.537c-0.228,0.139-0.399,0.208-0.513,0.208c-1.53,0-2.702-0.134-3.516-0.403
		c-0.814-0.268-1.221-0.54-1.221-0.817c0-0.179,0.171-0.325,0.513-0.439c0.342-0.113,0.871-0.171,1.587-0.171
		c0.179,0,0.447-0.135,0.806-0.402c0.358-0.27,0.785-0.606,1.282-1.014c0.496-0.406,1.045-0.846,1.648-1.318
		c0.602-0.472,1.221-0.911,1.855-1.318c0.635-0.406,1.277-0.744,1.929-1.014c0.651-0.268,1.286-0.402,1.904-0.402
		c0.879,0,1.465,0.061,1.758,0.184c0.293,0.121,0.439,0.297,0.439,0.524c0,0.244-0.033,0.546-0.098,0.903
		c-0.065,0.358-0.098,0.781-0.098,1.27c-0.179,1.172-0.342,2.23-0.488,3.174c-0.146,0.944-0.313,2.014-0.5,3.211
		c-0.188,1.195-0.371,2.408-0.549,3.637c-0.179,1.229-0.35,2.426-0.513,3.59c-0.163,1.163-0.301,2.177-0.415,3.039
		c-0.049,0.195-0.11,0.488-0.183,0.879s-0.175,0.818-0.305,1.281c-0.13,0.465-0.289,0.937-0.476,1.416
		c-0.188,0.48-0.411,0.92-0.671,1.318c-0.261,0.399-0.566,0.725-0.916,0.977c-0.35,0.253-0.745,0.379-1.184,0.379
		c-0.537,0-1.042-0.032-1.514-0.098c-0.472-0.064-0.879-0.167-1.221-0.305c-0.342-0.139-0.61-0.318-0.806-0.537
		c-0.195-0.221-0.293-0.484-0.293-0.794c0-0.13,0.008-0.26,0.024-0.391c0.016-0.13,0.081-0.293,0.195-0.488
		c0.26-0.943,0.517-1.925,0.769-2.942c0.252-1.017,0.496-2.038,0.732-3.063c0.236-1.025,0.459-2.038,0.671-3.04
		c0.211-1,0.407-1.948,0.586-2.844C63.338,30.708,63.721,28.625,64.063,26.557z"/>
	<path fill="#FFFFFF" d="M129.077,39.057c-0.798,0.342-1.571,0.793-2.319,1.355c-0.749,0.561-1.506,1.176-2.271,1.843
		c-0.765,0.668-1.559,1.371-2.38,2.112c-0.822,0.74-1.709,1.473-2.661,2.197c-0.952,0.724-1.99,1.416-3.113,2.074
		c-1.123,0.66-2.364,1.237-3.723,1.734c-1.359,0.496-2.856,0.891-4.492,1.184s-3.447,0.439-5.432,0.439
		c-2.197,0-4.179-0.443-5.945-1.33c-1.766-0.888-3.276-2.084-4.529-3.59c-1.253-1.505-2.218-3.255-2.893-5.248
		c-0.676-1.994-1.013-4.09-1.013-6.287c0-1.497,0.163-3.104,0.488-4.822c0.325-1.717,0.793-3.467,1.404-5.248
		c0.61-1.783,1.355-3.561,2.234-5.335c0.879-1.773,1.875-3.475,2.991-5.103c1.115-1.627,2.339-3.137,3.674-4.529
		c1.334-1.391,2.759-2.604,4.272-3.637c1.514-1.034,3.108-1.844,4.785-2.43c1.676-0.586,3.418-0.879,5.225-0.879
		c1.172,0,2.36,0.207,3.564,0.623c1.204,0.414,2.287,1.054,3.247,1.916c0.96,0.863,1.746,1.953,2.356,3.271s0.916,2.873,0.916,4.663
		c0,1.205-0.191,2.421-0.574,3.649c-0.383,1.229-0.908,2.409-1.575,3.541c-0.667,1.131-1.453,2.193-2.356,3.186
		c-0.903,0.993-1.876,1.852-2.917,2.576c-1.042,0.724-2.124,1.298-3.247,1.721c-1.123,0.424-2.246,0.635-3.369,0.635
		c-1.481,0-2.588-0.199-3.32-0.598c-0.732-0.399-1.099-0.973-1.099-1.722c0-0.13-0.004-0.284-0.012-0.464
		c-0.008-0.179-0.012-0.366-0.012-0.562c0-0.293,0.016-0.599,0.049-0.915c0.032-0.318,0.098-0.606,0.195-0.867
		c0.098-0.26,0.24-0.472,0.427-0.635c0.187-0.162,0.443-0.244,0.769-0.244c0.195,0,0.366,0.028,0.513,0.086
		c0.146,0.057,0.309,0.118,0.488,0.183c0.179,0.065,0.395,0.126,0.647,0.183c0.252,0.058,0.574,0.086,0.964,0.086
		c1.042,0,2.095-0.228,3.162-0.684c1.066-0.455,2.026-1.099,2.881-1.929s1.554-1.819,2.1-2.966c0.545-1.148,0.818-2.413,0.818-3.797
		c0-0.732-0.098-1.428-0.293-2.088c-0.195-0.658-0.513-1.236-0.952-1.732c-0.439-0.497-1.005-0.896-1.697-1.197
		c-0.692-0.301-1.534-0.451-2.527-0.451c-1.172,0-2.315,0.256-3.43,0.77c-1.115,0.512-2.185,1.208-3.21,2.087
		s-1.998,1.921-2.917,3.125c-0.92,1.205-1.77,2.494-2.551,3.87c-0.781,1.375-1.485,2.807-2.112,4.297
		c-0.627,1.488-1.16,2.975-1.599,4.455c-0.439,1.481-0.777,2.918-1.013,4.309c-0.236,1.393-0.354,2.674-0.354,3.846
		c0,1.677,0.208,3.137,0.623,4.383c0.415,1.244,1.005,2.282,1.77,3.112c0.765,0.83,1.701,1.449,2.808,1.855
		c1.106,0.407,2.352,0.61,3.735,0.61c1.725,0,3.333-0.216,4.822-0.646c1.489-0.432,2.909-0.997,4.26-1.697
		c1.351-0.699,2.657-1.489,3.918-2.368c1.261-0.879,2.522-1.762,3.784-2.649c1.261-0.887,2.547-1.732,3.857-2.539
		c1.31-0.805,2.698-1.484,4.163-2.038V39.057z"/>
	<path fill="#FFFFFF" d="M132.666,32.124c0.667-0.879,1.416-1.822,2.246-2.832c0.83-1.009,1.692-1.949,2.588-2.82
		c0.895-0.87,1.786-1.595,2.674-2.172c0.887-0.578,1.721-0.867,2.502-0.867c0.195,0,0.415,0.037,0.659,0.109
		c0.244,0.074,0.476,0.208,0.696,0.403c0.219,0.195,0.402,0.468,0.549,0.817c0.146,0.351,0.22,0.803,0.22,1.355
		c0,1.107-0.155,2.186-0.464,3.234c-0.31,1.051-0.646,2.1-1.014,3.15c-0.365,1.049-0.699,2.12-1,3.21
		c-0.302,1.091-0.452,2.23-0.452,3.418c0,0.651,0.098,1.172,0.293,1.563s0.447,0.586,0.757,0.586c0.391,0,0.806-0.081,1.245-0.244
		c0.439-0.162,0.879-0.374,1.318-0.635c0.439-0.26,0.87-0.558,1.294-0.892c0.423-0.333,0.822-0.679,1.196-1.037
		c0.896-0.83,1.774-1.773,2.637-2.832l0.415,6.494c-0.293,0.229-0.664,0.513-1.111,0.854s-0.943,0.704-1.488,1.087
		c-0.546,0.382-1.136,0.769-1.771,1.159s-1.274,0.736-1.917,1.038c-0.643,0.301-1.285,0.549-1.928,0.744
		c-0.644,0.195-1.258,0.293-1.844,0.293c-0.896,0-1.672-0.24-2.332-0.721c-0.658-0.479-1.2-1.09-1.623-1.83
		c-0.424-0.741-0.74-1.551-0.952-2.43s-0.317-1.709-0.317-2.49c0-0.521,0.068-1.103,0.207-1.746c0.139-0.643,0.31-1.289,0.514-1.94
		c0.203-0.65,0.431-1.285,0.684-1.904c0.252-0.618,0.488-1.172,0.707-1.66c0.221-0.488,0.411-0.887,0.574-1.196
		c0.162-0.309,0.269-0.488,0.317-0.537l-0.513-0.073c-0.277,0.18-0.744,0.635-1.404,1.367c-0.658,0.732-1.403,1.656-2.233,2.771
		c-0.83,1.115-1.688,2.369-2.575,3.76c-0.888,1.393-1.689,2.829-2.405,4.31c-0.358,0.732-0.651,1.371-0.879,1.917
		c-0.228,0.545-0.452,0.992-0.671,1.342c-0.221,0.351-0.461,0.615-0.721,0.794c-0.261,0.18-0.594,0.269-1.001,0.269
		c-0.537,0-0.96-0.154-1.27-0.464c-0.31-0.309-0.545-0.72-0.708-1.233c-0.163-0.512-0.269-1.094-0.317-1.745
		c-0.049-0.65-0.073-1.318-0.073-2.002c0-1.09,0.012-2.519,0.037-4.284c0.024-1.767,0.102-3.724,0.232-5.872
		c0.13-2.148,0.317-4.41,0.562-6.787c0.244-2.376,0.59-4.724,1.038-7.044c0.447-2.318,1.009-4.532,1.685-6.641
		c0.675-2.107,1.496-3.963,2.465-5.566c0.969-1.603,2.104-2.876,3.406-3.82c1.302-0.943,2.799-1.416,4.492-1.416
		c0.879,0,1.6,0.131,2.16,0.391c0.563,0.261,1.01,0.627,1.344,1.099c0.333,0.473,0.564,1.038,0.695,1.696
		c0.13,0.66,0.195,1.396,0.195,2.21c0,1.205-0.171,2.539-0.513,4.004s-0.794,2.987-1.354,4.565
		c-0.563,1.579-1.201,3.178-1.917,4.797c-0.716,1.62-1.448,3.19-2.197,4.713c-0.749,1.521-1.485,2.958-2.21,4.309
		c-0.725,1.352-1.363,2.539-1.916,3.564L132.666,32.124z M134.839,17.036c0.96-2.49,1.655-4.59,2.087-6.299s0.647-2.97,0.647-3.784
		c0-1.236-0.163-1.855-0.488-1.855c-0.423,0-1.05,0.692-1.88,2.075c-0.83,1.384-1.807,3.394-2.93,6.03
		c-0.277,0.896-0.533,1.823-0.77,2.783c-0.236,0.961-0.447,1.917-0.635,2.868c-0.188,0.953-0.357,1.889-0.512,2.809
		c-0.155,0.919-0.289,1.794-0.403,2.624c-0.276,1.938-0.488,3.833-0.635,5.688c0.439-1.025,0.919-2.14,1.44-3.345
		c0.521-1.204,1.033-2.396,1.538-3.577c0.505-1.18,0.98-2.295,1.429-3.344C134.176,18.659,134.546,17.768,134.839,17.036z"/>
	<path fill="#FFFFFF" d="M174.805,41.328c-0.375,0.521-0.875,1.132-1.502,1.831c-0.627,0.7-1.33,1.367-2.111,2.002
		s-1.619,1.172-2.515,1.611s-1.79,0.659-2.686,0.659c-1.074,0-1.97-0.346-2.686-1.038c-0.716-0.691-1.335-1.696-1.855-3.015
		c-0.391,0.456-0.871,0.92-1.44,1.392c-0.57,0.473-1.192,0.899-1.867,1.281c-0.676,0.383-1.38,0.696-2.112,0.94
		s-1.465,0.366-2.197,0.366c-0.781,0-1.542-0.158-2.282-0.477c-0.741-0.316-1.396-0.772-1.966-1.367
		c-0.569-0.594-1.025-1.318-1.367-2.172c-0.342-0.855-0.513-1.819-0.513-2.894c0-1.221,0.171-2.474,0.513-3.76
		c0.342-1.285,0.813-2.543,1.416-3.772c0.603-1.229,1.313-2.388,2.136-3.479c0.822-1.09,1.722-2.042,2.698-2.856
		c0.977-0.813,2.006-1.461,3.089-1.94c1.082-0.48,2.185-0.721,3.308-0.721c0.374,0,0.667,0.073,0.879,0.22s0.386,0.313,0.524,0.501
		c0.139,0.187,0.273,0.37,0.403,0.549c0.13,0.18,0.293,0.31,0.488,0.391c0.195,0.082,0.395,0.135,0.599,0.158
		c0.203,0.025,0.41,0.037,0.622,0.037c0.179,0,0.362-0.004,0.55-0.012c0.187-0.009,0.369-0.013,0.549-0.013
		c0.244,0,0.472,0.024,0.684,0.073c0.211,0.049,0.398,0.155,0.562,0.317c0.163,0.163,0.288,0.391,0.378,0.684
		s0.135,0.692,0.135,1.196c0,0.781-0.082,1.648-0.244,2.6c-0.163,0.953-0.342,1.93-0.537,2.93c-0.195,1.002-0.375,2.002-0.537,3.004
		c-0.163,1-0.244,1.949-0.244,2.844c0,0.766,0.068,1.363,0.207,1.795c0.139,0.431,0.436,0.646,0.892,0.646
		c0.342,0,0.7-0.086,1.074-0.256c0.374-0.172,0.753-0.395,1.136-0.672c0.382-0.276,0.764-0.59,1.146-0.939
		c0.383-0.351,0.745-0.712,1.087-1.087c0.798-0.879,1.603-1.871,2.417-2.979L174.805,41.328z M153.955,39.399
		c0,0.407,0.028,0.802,0.086,1.184c0.057,0.383,0.158,0.725,0.305,1.025c0.146,0.302,0.342,0.546,0.586,0.732
		c0.244,0.188,0.553,0.281,0.928,0.281c0.602,0,1.147-0.26,1.636-0.781c0.488-0.521,0.911-1.147,1.27-1.88s0.647-1.489,0.866-2.271
		c0.221-0.781,0.362-1.432,0.428-1.953l1.489-7.178c-0.667,0-1.318,0.167-1.953,0.5c-0.635,0.334-1.233,0.786-1.794,1.355
		c-0.563,0.57-1.079,1.221-1.551,1.953c-0.473,0.732-0.879,1.502-1.221,2.307c-0.342,0.807-0.606,1.616-0.793,2.43
		C154.049,37.918,153.955,38.683,153.955,39.399z"/>
	<path fill="#FFFFFF" d="M192.236,41.84c-1.563,0.912-2.954,1.709-4.175,2.393s-2.308,1.254-3.259,1.709
		c-0.953,0.456-1.799,0.798-2.539,1.025c-0.741,0.229-1.412,0.342-2.015,0.342c-1.237,0-2.327-0.374-3.271-1.123
		c-0.944-0.748-1.733-1.827-2.368-3.234c-0.635-1.408-1.111-3.113-1.428-5.115c-0.318-2.002-0.477-4.256-0.477-6.763
		c0-0.977,0.041-2.018,0.122-3.125c0.081-1.106,0.195-2.205,0.342-3.296c-0.488-0.064-0.866-0.126-1.136-0.184
		c-0.268-0.057-0.553-0.113-0.854-0.17c-0.302-0.058-0.684-0.118-1.148-0.184c-0.463-0.064-1.135-0.146-2.014-0.244
		c-0.391-0.049-0.691-0.143-0.903-0.281c-0.212-0.138-0.366-0.301-0.464-0.488c-0.098-0.187-0.154-0.382-0.171-0.586
		c-0.017-0.203-0.024-0.378-0.024-0.524c0-0.325,0.158-0.573,0.477-0.745c0.316-0.17,0.725-0.296,1.221-0.378
		c0.496-0.081,1.041-0.126,1.635-0.134c0.594-0.009,1.164-0.004,1.709,0.012c0.545,0.017,1.033,0.028,1.465,0.037
		c0.432,0.008,0.729-0.004,0.892-0.037c0.439-2.197,0.997-4.325,1.673-6.385c0.675-2.059,1.432-3.89,2.27-5.492
		c0.838-1.604,1.754-2.89,2.747-3.857c0.993-0.969,2.034-1.453,3.125-1.453c0.7,0,1.339,0.195,1.917,0.586
		c0.577,0.391,1.069,0.912,1.477,1.563c0.406,0.651,0.721,1.412,0.939,2.283c0.221,0.87,0.33,1.778,0.33,2.722
		c0,0.798-0.114,1.64-0.342,2.526c-0.229,0.888-0.537,1.791-0.928,2.711c-0.391,0.919-0.851,1.852-1.379,2.795
		c-0.529,0.944-1.087,1.88-1.673,2.808c0.146,0.017,0.391,0.028,0.732,0.036c0.342,0.009,0.736,0.021,1.185,0.037
		c0.447,0.017,0.932,0.037,1.452,0.061c0.521,0.025,1.025,0.046,1.514,0.062c0.488,0.017,0.944,0.033,1.367,0.049
		c0.423,0.017,0.772,0.033,1.05,0.049c0.325,0.017,0.562,0.18,0.708,0.488c0.146,0.31,0.22,0.7,0.22,1.172
		c0,0.57-0.163,1.034-0.488,1.392c-0.326,0.358-0.684,0.537-1.074,0.537h-9.375c-0.473,0.651-0.948,1.29-1.428,1.916
		c-0.48,0.627-0.924,1.193-1.331,1.697c-0.065,1.01-0.122,2.002-0.171,2.979c-0.017,0.424-0.033,0.858-0.049,1.307
		c-0.017,0.447-0.033,0.891-0.049,1.33c-0.017,0.439-0.029,0.863-0.037,1.27c-0.008,0.407-0.012,0.781-0.012,1.123
		c0,0.879,0.081,1.62,0.244,2.222c0.162,0.603,0.398,1.095,0.708,1.478c0.31,0.382,0.688,0.658,1.136,0.83
		c0.447,0.17,0.947,0.256,1.501,0.256c0.342,0,0.769-0.081,1.282-0.244c0.512-0.162,1.074-0.387,1.684-0.672
		c0.611-0.284,1.254-0.622,1.93-1.013c0.675-0.391,1.342-0.817,2.002-1.282c0.658-0.463,1.289-0.951,1.892-1.465
		c0.603-0.512,1.147-1.037,1.636-1.574V41.84z M184.424,10.932c0-0.179-0.012-0.379-0.037-0.598
		c-0.023-0.221-0.077-0.428-0.158-0.623c-0.082-0.195-0.207-0.357-0.379-0.488c-0.17-0.13-0.41-0.195-0.72-0.195
		c-0.423,0-0.851,0.375-1.282,1.123c-0.432,0.749-0.846,1.705-1.244,2.869c-0.399,1.163-0.773,2.445-1.123,3.845
		c-0.351,1.4-0.672,2.759-0.965,4.077c0.244,0.033,0.488,0.061,0.732,0.086c0.244,0.023,0.496,0.053,0.757,0.085
		c0.488-0.83,0.997-1.729,1.526-2.698c0.528-0.968,1.004-1.92,1.428-2.855c0.423-0.937,0.773-1.811,1.05-2.625
		C184.285,12.121,184.424,11.454,184.424,10.932z"/>
</g>
</svg>
