<?xml version="1.0" encoding="utf-8"?>
<!-- Generator: Adobe Illustrator 16.0.0, SVG Export Plug-In . SVG Version: 6.00 Build 0)  -->
<!DOCTYPE svg PUBLIC "-//W3C//DTD SVG 1.1//EN" "http://www.w3.org/Graphics/SVG/1.1/DTD/svg11.dtd">
<svg version="1.1" id="Capa_1" xmlns="http://www.w3.org/2000/svg" xmlns:xlink="http://www.w3.org/1999/xlink" x="0px" y="0px"
	 width="107.845px" height="104.938px" viewBox="0.766 0.676 107.845 104.938" enable-background="new 0.766 0.676 107.845 104.938"
	 xml:space="preserve">
<g>
	<g>
		<path fill="#2CF388" d="M103.006,1.878L3.95,53.822c-4.075,2.136-3.907,5.266,0.368,6.958l12.646,4.998
			c4.267,1.689,10.736,0.773,14.364-2.064l54.923-43.31c3.611-2.846,4-2.424,0.861,0.936L43.69,67.827
			c-3.146,3.348-2.21,7.451,2.069,9.119l1.479,0.581c4.28,1.655,11.276,4.438,15.535,6.177l14.025,5.709
			c4.263,1.734,7.749,3.172,7.749,3.197c0,0.024,0.025,0.104,0.046,0.108c0.021,0.009,1.028-3.611,2.231-8.049l21.39-78.599
			C109.417,1.627,107.081-0.253,103.006,1.878z"/>
		<path fill="#2CF388" d="M44.146,82.216l-9.704-3.97c-4.255-1.743-6.294,0.301-4.53,4.551c0.004,0,9.01,21.707,8.759,22.472
			c-0.259,0.76,8.643-12.881,8.643-12.881C49.83,88.535,48.401,83.958,44.146,82.216z"/>
	</g>
</g>
</svg>
